<svg width="240" height="160" viewBox="0 0 240 160" fill="none" xmlns="http://www.w3.org/2000/svg">
<path d="M210.521 95.6995L213.174 91.4211L211.856 90.6051C211.669 90.4862 211.52 90.318 211.423 90.1191C211.327 89.9203 211.287 89.6986 211.309 89.4787C211.33 89.2339 211.338 88.9883 211.334 88.7427C211.328 88.5182 211.384 88.2965 211.497 88.1025C211.611 87.9085 211.776 87.7501 211.974 87.6451L213.331 86.9154L210.95 82.4771L209.577 83.2003C209.386 83.3031 209.17 83.3513 208.954 83.3394C208.737 83.3275 208.527 83.2561 208.349 83.1331C208.129 82.9802 207.902 82.8392 207.667 82.7107C207.476 82.6055 207.317 82.4493 207.209 82.2595C207.101 82.0697 207.048 81.8537 207.056 81.6355L207.107 80.0963L202.073 79.9395L202.025 81.4851C202.019 81.7036 201.952 81.9161 201.831 82.0987C201.711 82.2812 201.542 82.4266 201.344 82.5187C201.225 82.5731 201.11 82.6339 200.995 82.6947C200.88 82.7555 200.765 82.8195 200.656 82.8867C200.47 83.001 200.256 83.0616 200.038 83.0616C199.82 83.0616 199.606 83.001 199.421 82.8867L198.102 82.0707L195.449 86.3491L196.771 87.1683C196.957 87.2865 197.106 87.4542 197.202 87.6526C197.299 87.851 197.338 88.0722 197.315 88.2915C197.296 88.5347 197.286 88.7811 197.289 89.0243C197.298 89.2475 197.243 89.4687 197.133 89.663C197.023 89.8574 196.861 90.0173 196.665 90.1251L195.309 90.8515L197.689 95.2899L199.046 94.5635C199.244 94.4595 199.466 94.4125 199.689 94.4278C199.912 94.4431 200.126 94.5199 200.307 94.6499C200.507 94.7899 200.716 94.9181 200.931 95.0339C201.127 95.1363 201.29 95.291 201.403 95.4809C201.516 95.6707 201.574 95.8882 201.571 96.1091L201.523 97.6643L206.553 97.8211L206.601 96.2787C206.61 96.0578 206.68 95.8437 206.803 95.6601C206.926 95.4766 207.098 95.3307 207.299 95.2387C207.414 95.1875 207.523 95.1299 207.635 95.0723C207.747 95.0147 207.853 94.9507 207.955 94.8867C208.144 94.7706 208.361 94.7091 208.582 94.7091C208.804 94.7091 209.021 94.7706 209.209 94.8867L210.521 95.6995ZM206.72 92.2371C206.02 92.7405 205.18 93.0119 204.317 93.0131C203.455 93.0143 202.614 92.7453 201.913 92.2439C201.211 91.7425 200.685 91.0339 200.407 90.2176C200.129 89.4014 200.114 88.5186 200.364 87.6934C200.613 86.8681 201.115 86.1419 201.799 85.6168C202.483 85.0916 203.314 84.794 204.176 84.7657C205.038 84.7374 205.887 84.9799 206.604 85.4591C207.321 85.9382 207.869 86.63 208.173 87.4371C208.492 88.2855 208.523 89.2157 208.26 90.0834C207.998 90.9512 207.456 91.7081 206.72 92.2371Z" fill="#EBEBEB"/>
<path d="M194.878 79.9457L197.931 78.1825L197.393 77.2481C197.316 77.1131 197.278 76.9594 197.283 76.804C197.288 76.6486 197.336 76.4977 197.422 76.3681C197.517 76.2214 197.605 76.0697 197.684 75.9137C197.753 75.7747 197.86 75.6577 197.991 75.5758C198.123 75.4938 198.275 75.4502 198.43 75.4497H199.512V71.9297H198.43C198.275 71.9285 198.123 71.8845 197.992 71.8026C197.86 71.7208 197.754 71.6042 197.684 71.4657C197.605 71.3086 197.517 71.1559 197.422 71.0081C197.336 70.8791 197.288 70.7287 197.283 70.5738C197.277 70.4189 197.316 70.2656 197.393 70.1313L197.931 69.1969L194.878 67.4241L194.337 68.3617C194.258 68.4956 194.144 68.605 194.007 68.6779C193.869 68.7507 193.715 68.7842 193.56 68.7745C193.473 68.7745 193.387 68.7745 193.297 68.7745C193.208 68.7745 193.124 68.7745 193.038 68.7745C192.884 68.7842 192.73 68.7511 192.593 68.6789C192.456 68.6066 192.342 68.4979 192.264 68.3649L191.72 67.4241L188.664 69.1873L189.204 70.1249C189.282 70.2592 189.32 70.4125 189.315 70.5674C189.31 70.7223 189.262 70.8727 189.176 71.0017C189.079 71.1483 188.99 71.3 188.91 71.4561C188.842 71.5952 188.737 71.7125 188.605 71.7946C188.474 71.8766 188.322 71.9201 188.168 71.9201H187.086V75.4401H188.158C188.312 75.4401 188.464 75.4833 188.595 75.5647C188.726 75.6461 188.832 75.7625 188.9 75.9009C188.98 76.0573 189.069 76.209 189.166 76.3553C189.252 76.4849 189.3 76.6358 189.305 76.7912C189.31 76.9466 189.272 77.1003 189.195 77.2353L188.654 78.1729L191.71 79.9361L192.251 78.9985C192.33 78.8652 192.445 78.7564 192.582 78.6841C192.719 78.6118 192.874 78.5789 193.028 78.5889H193.288H193.55C193.705 78.5789 193.859 78.6118 193.996 78.6841C194.134 78.7564 194.248 78.8652 194.328 78.9985L194.878 79.9457ZM193.278 76.5729C192.708 76.5729 192.152 76.404 191.678 76.0875C191.204 75.771 190.835 75.3213 190.617 74.795C190.399 74.2687 190.342 73.6897 190.453 73.131C190.564 72.5723 190.839 72.0592 191.241 71.6564C191.644 71.2536 192.157 70.9793 192.716 70.8682C193.275 70.7571 193.854 70.8141 194.38 71.0321C194.906 71.2501 195.356 71.6192 195.673 72.0928C195.989 72.5664 196.158 73.1233 196.158 73.6929C196.158 74.4567 195.854 75.1892 195.314 75.7293C194.774 76.2694 194.042 76.5729 193.278 76.5729Z" fill="#EBEBEB"/>
<path d="M27.618 29.7122C27.7521 29.7908 27.8618 29.9052 27.9347 30.0425C28.0076 30.1798 28.0408 30.3347 28.0308 30.4898C28.0308 30.5762 28.0308 30.6626 28.0308 30.749C28.0308 30.8354 28.0308 30.925 28.0308 31.0114C28.0406 31.1657 28.0075 31.3197 27.9352 31.4564C27.8629 31.5931 27.7542 31.7071 27.6212 31.7858L26.6836 32.3202L28.4468 35.3762L29.3812 34.8354C29.5164 34.7586 29.6703 34.721 29.8257 34.7266C29.9811 34.7323 30.1319 34.781 30.2612 34.8674C30.4079 34.9629 30.5596 35.0505 30.7156 35.1298C30.8541 35.1994 30.9707 35.3058 31.0526 35.4373C31.1344 35.5689 31.1784 35.7205 31.1796 35.8754V36.9538H34.6996V35.8754C34.7001 35.7207 34.7435 35.5692 34.8248 35.4376C34.9061 35.306 35.0223 35.1995 35.1604 35.1298C35.3168 35.0512 35.4685 34.9636 35.6148 34.8674C35.7441 34.781 35.8948 34.7323 36.0503 34.7266C36.2057 34.721 36.3596 34.7586 36.4948 34.8354L37.4324 35.3762L39.1956 32.3202L38.2548 31.7762C38.1213 31.698 38.0122 31.5841 37.9398 31.4473C37.8675 31.3105 37.8347 31.1562 37.8452 31.0018C37.8452 30.9154 37.8452 30.829 37.8452 30.7426C37.8452 30.6562 37.8452 30.5698 37.8452 30.4834C37.8348 30.3286 37.8676 30.174 37.9399 30.0367C38.0123 29.8994 38.1213 29.7849 38.2548 29.7058L39.1956 29.165L37.4388 26.1154L36.5044 26.6562C36.3695 26.7335 36.2157 26.7717 36.0603 26.7667C35.9049 26.7616 35.754 26.7134 35.6244 26.6274C35.4777 26.5309 35.3261 26.4423 35.17 26.3618C35.031 26.2929 34.914 26.1866 34.8321 26.0549C34.7501 25.9233 34.7065 25.7714 34.706 25.6162V24.5378H31.186V25.6162C31.1845 25.7715 31.14 25.9234 31.0576 26.055C30.9751 26.1866 30.8579 26.2928 30.7188 26.3618C30.5617 26.4422 30.4089 26.5309 30.2612 26.6274C30.1322 26.7134 29.9818 26.7617 29.8269 26.7668C29.672 26.7719 29.5187 26.7336 29.3844 26.6562L28.4468 26.1154L26.6836 29.1714L27.618 29.7122ZM32.9588 27.8594C33.5284 27.8594 34.0852 28.0284 34.5588 28.3448C35.0324 28.6613 35.4016 29.1111 35.6196 29.6373C35.8375 30.1636 35.8946 30.7426 35.7835 31.3013C35.6723 31.86 35.398 32.3731 34.9953 32.7759C34.5925 33.1787 34.0793 33.453 33.5207 33.5641C32.962 33.6752 32.3829 33.6182 31.8567 33.4002C31.3304 33.1822 30.8806 32.8131 30.5642 32.3395C30.2477 31.8659 30.0788 31.3091 30.0788 30.7394C30.0788 29.9756 30.3822 29.2431 30.9223 28.703C31.4624 28.1629 32.195 27.8594 32.9588 27.8594Z" fill="#EBEBEB"/>
<path d="M180.746 30.1537C179.863 32.4042 179.342 34.7803 179.203 37.1937H179.114H173.034H172.957V37.0209C172.957 36.8609 172.992 36.7009 173.008 36.5409C173.086 35.7108 173.224 34.8873 173.421 34.0769C173.746 32.7511 174.211 31.4638 174.81 30.2369C174.821 30.207 174.842 30.1816 174.869 30.1648C174.896 30.148 174.928 30.1407 174.96 30.1441H180.752L180.746 30.1537Z" fill="#EBEBEB"/>
<path d="M180.555 45.9203H174.814C174.784 45.924 174.754 45.9171 174.728 45.9008C174.702 45.8844 174.683 45.8596 174.674 45.8307C174.013 44.4507 173.533 42.9912 173.246 41.4883C173.108 40.7619 173.014 40.0277 172.965 39.2899C172.968 39.2654 172.968 39.2407 172.965 39.2163V39.0403C172.997 39.0403 173.029 39.0403 173.061 39.0403H179.109C179.221 39.0403 179.214 39.0403 179.224 39.1555C179.262 39.6579 179.294 40.1603 179.342 40.6595C179.422 41.4548 179.551 42.2445 179.726 43.0243C179.934 43.9794 180.207 44.9192 180.542 45.8371C180.548 45.8646 180.553 45.8923 180.555 45.9203Z" fill="#EBEBEB"/>
<path d="M204.714 47.7378L204.663 47.8242C204.177 48.5693 203.632 49.2744 203.034 49.933C202.318 50.7462 201.519 51.483 200.65 52.1314C198.977 53.4023 197.083 54.3527 195.063 54.9346C194.278 55.1599 193.478 55.3299 192.67 55.4434L192.436 55.4818H192.295L192.164 55.3986L192.314 55.2898C194.066 54.0969 195.599 52.6106 196.846 50.8962C197.549 49.9281 198.168 48.9014 198.695 47.8274C198.705 47.7985 198.724 47.7737 198.75 47.7573C198.775 47.741 198.806 47.7341 198.836 47.7378H204.714Z" fill="#EBEBEB"/>
<path d="M198.966 37.2066H190.898V30.1666H197.196C197.224 30.1633 197.253 30.1702 197.276 30.186C197.3 30.2019 197.317 30.2256 197.324 30.253C197.9 31.5781 198.329 32.9624 198.604 34.381C198.75 35.1214 198.857 35.8692 198.924 36.621C198.934 36.8002 198.95 36.9986 198.966 37.2066Z" fill="#EBEBEB"/>
<path d="M198.919 39.0881C198.919 39.2545 198.919 39.4081 198.893 39.5841C198.858 39.9777 198.832 40.3713 198.778 40.7617C198.701 41.3025 198.618 41.8433 198.509 42.3777C198.27 43.5549 197.92 44.7068 197.463 45.8177C197.456 45.8505 197.437 45.8795 197.41 45.8991C197.382 45.9186 197.349 45.9273 197.316 45.9233H190.852V39.0881H198.919Z" fill="#EBEBEB"/>
<path d="M189.078 30.1986V37.2578H181.203C181.203 37.0786 181.219 36.9057 181.235 36.7297C181.277 36.3361 181.309 35.9393 181.373 35.5489C181.469 34.9505 181.571 34.3521 181.693 33.7569C181.957 32.5648 182.338 31.4017 182.832 30.2849C182.84 30.2567 182.858 30.2325 182.883 30.2166C182.908 30.2007 182.937 30.1943 182.966 30.1986H189.072H189.078Z" fill="#EBEBEB"/>
<path d="M189.087 39.1809C189.087 41.3953 189.087 43.6076 189.087 45.8177V45.9201H182.79C182.759 45.9235 182.729 45.9161 182.704 45.8991C182.679 45.882 182.66 45.8566 182.652 45.8273C182.173 44.6826 181.813 43.4911 181.58 42.2721C181.462 41.6321 181.372 41.0113 181.292 40.3777C181.241 39.9649 181.228 39.5457 181.199 39.1297C181.199 39.1297 181.199 39.1073 181.199 39.0849H188.988C189.068 39.0785 189.087 39.1041 189.087 39.1809Z" fill="#EBEBEB"/>
<path d="M207.519 37.2578H200.907C200.771 34.8223 200.247 32.4241 199.355 30.1538H205.515C205.546 30.1502 205.576 30.1568 205.602 30.1724C205.628 30.1881 205.648 30.2119 205.659 30.2402C206.366 31.6385 206.879 33.1262 207.186 34.6626C207.347 35.4802 207.454 36.3076 207.506 37.1394C207.522 37.1746 207.519 37.213 207.519 37.2578Z" fill="#EBEBEB"/>
<path d="M207.528 39.0403C207.528 39.2003 207.528 39.3603 207.506 39.5043C207.37 41.4936 206.885 43.4434 206.072 45.2643C205.983 45.4691 205.887 45.6707 205.794 45.8755C205.787 45.8954 205.773 45.9123 205.755 45.9234C205.737 45.9344 205.716 45.939 205.695 45.9363H199.615H199.551C199.624 45.7251 199.698 45.5203 199.768 45.3155C200.123 44.265 200.396 43.1887 200.584 42.0963C200.726 41.3025 200.821 40.5011 200.869 39.6963C200.869 39.5075 200.892 39.3187 200.901 39.1267C200.901 39.0787 200.901 39.0531 200.968 39.0563H207.522L207.528 39.0403Z" fill="#EBEBEB"/>
<path d="M204.531 28.3553C204.531 28.3553 204.531 28.3553 204.531 28.3809H198.652C198.623 28.3847 198.594 28.379 198.568 28.3645C198.543 28.3501 198.523 28.3278 198.511 28.3009C197.74 26.7644 196.772 25.3348 195.631 24.0481C194.963 23.3043 194.226 22.625 193.43 22.0193C193.036 21.6993 192.627 21.4305 192.223 21.1393L192.156 21.0881L192.236 21.0337C192.236 20.9953 192.214 20.9569 192.198 20.9089C194.667 21.1912 197.045 22.0024 199.172 23.2875C201.299 24.5725 203.123 26.3011 204.521 28.3553H204.531Z" fill="#EBEBEB"/>
<path d="M187.962 55.4016C187.906 55.4185 187.849 55.4282 187.792 55.4304C187.157 55.3464 186.527 55.2235 185.907 55.0624C184.747 54.7694 183.622 54.3531 182.55 53.8208C181.326 53.2129 180.179 52.4609 179.133 51.5808C178.387 50.9579 177.698 50.2693 177.075 49.5232C176.611 48.9593 176.183 48.3661 175.795 47.7472L175.77 47.6928H181.245C181.274 47.6898 181.303 47.6968 181.327 47.7125C181.351 47.7282 181.37 47.7517 181.379 47.7792C181.939 48.9101 182.601 49.9876 183.357 50.9984C184.055 51.9162 184.83 52.7726 185.674 53.5584C186.37 54.2165 187.119 54.8169 187.914 55.3536L187.962 55.4016Z" fill="#EBEBEB"/>
<path d="M187.888 21.0785C187.641 21.2609 187.353 21.4625 187.072 21.6801C186.132 22.4099 185.26 23.2216 184.464 24.1057C183.384 25.2825 182.464 26.5962 181.728 28.0129C181.68 28.1025 181.638 28.1921 181.587 28.2785C181.577 28.2928 181.565 28.305 181.551 28.3143C181.537 28.3237 181.521 28.33 181.504 28.3329C181.408 28.3329 181.308 28.3329 181.209 28.3329H175.945C178.877 24.1953 182.816 21.7057 187.837 20.9441L187.805 21.0113L187.888 21.0785Z" fill="#EBEBEB"/>
<path d="M196.56 47.7441C195.817 49.0464 194.923 50.2559 193.895 51.3473C192.987 52.3268 191.966 53.1938 190.852 53.9297V47.7441H196.56Z" fill="#EBEBEB"/>
<path d="M189.077 47.7473V53.8113C186.799 52.2497 184.923 50.1719 183.602 47.7473H189.077Z" fill="#EBEBEB"/>
<path d="M196.377 28.3298H190.898V22.5474C192.023 23.2796 193.056 24.1445 193.974 25.1234C194.884 26.1056 195.69 27.1802 196.377 28.3298Z" fill="#EBEBEB"/>
<path d="M189.078 22.7202V28.3746H183.82C185.106 26.1043 186.907 24.1676 189.078 22.7202Z" fill="#EBEBEB"/>
<path d="M86.3813 18.4385H44.7461V46.4961H86.3813V18.4385Z" fill="white"/>
<path d="M86.5411 46.6562H44.5859V18.2786H86.5411V46.6562ZM44.9059 46.3362H86.2211V18.5986H44.9059V46.3362Z" fill="#EBEBEB"/>
<path d="M48.7677 20.5633C48.7677 20.7531 48.7114 20.9387 48.6059 21.0966C48.5004 21.2545 48.3505 21.3775 48.175 21.4502C47.9996 21.5229 47.8066 21.5419 47.6204 21.5048C47.4341 21.4678 47.2631 21.3764 47.1288 21.2421C46.9946 21.1078 46.9031 20.9368 46.8661 20.7506C46.8291 20.5643 46.8481 20.3713 46.9207 20.1959C46.9934 20.0205 47.1164 19.8705 47.2743 19.7651C47.4322 19.6596 47.6178 19.6033 47.8077 19.6033C48.0623 19.6033 48.3064 19.7044 48.4865 19.8844C48.6665 20.0645 48.7677 20.3087 48.7677 20.5633Z" fill="#37474F"/>
<path d="M52.6817 20.5633C52.6817 20.7531 52.6254 20.9387 52.5199 21.0966C52.4144 21.2545 52.2645 21.3775 52.0891 21.4502C51.9137 21.5229 51.7207 21.5419 51.5344 21.5048C51.3482 21.4678 51.1772 21.3764 51.0429 21.2421C50.9086 21.1078 50.8172 20.9368 50.7802 20.7506C50.7431 20.5643 50.7621 20.3713 50.8348 20.1959C50.9075 20.0205 51.0305 19.8705 51.1884 19.7651C51.3462 19.6596 51.5318 19.6033 51.7217 19.6033C51.9763 19.6033 52.2205 19.7044 52.4005 19.8844C52.5806 20.0645 52.6817 20.3087 52.6817 20.5633Z" fill="#EBEBEB"/>
<path d="M56.5958 20.5633C56.5958 20.7531 56.5395 20.9387 56.434 21.0966C56.3285 21.2545 56.1786 21.3775 56.0032 21.4502C55.8277 21.5229 55.6347 21.5419 55.4485 21.5048C55.2623 21.4678 55.0912 21.3764 54.957 21.2421C54.8227 21.1078 54.7313 20.9368 54.6942 20.7506C54.6572 20.5643 54.6762 20.3713 54.7489 20.1959C54.8215 20.0205 54.9446 19.8705 55.1024 19.7651C55.2603 19.6596 55.4459 19.6033 55.6358 19.6033C55.8904 19.6033 56.1346 19.7044 56.3146 19.8844C56.4946 20.0645 56.5958 20.3087 56.5958 20.5633Z" fill="#0F4C81"/>
<path d="M86.3813 22.5059H44.7461V22.8259H86.3813V22.5059Z" fill="#EBEBEB"/>
<path d="M119.999 145.235C178.103 145.235 225.206 139.315 225.206 132.013C225.206 124.71 178.103 118.79 119.999 118.79C61.8955 118.79 14.793 124.71 14.793 132.013C14.793 139.315 61.8955 145.235 119.999 145.235Z" fill="#EBEBEB"/>
<path d="M16.2305 114.621L42.1729 114.544L68.1153 114.515L120 114.461L171.885 114.515L197.827 114.544L223.77 114.621L197.827 114.701L171.885 114.726L120 114.781L68.1153 114.726L42.1729 114.697L16.2305 114.621Z" fill="#263238"/>
<path d="M182.324 31.0913H57.1367V114.832H182.324V31.0913Z" fill="#DBDBDB"/>
<path d="M181.416 32.1121H58.0469V113.811H181.416V32.1121Z" fill="#263238"/>
<path d="M198.63 121.11H40.832V126.858H198.63V121.11Z" fill="#C7C7C7"/>
<path d="M40.832 121.11L57.136 114.832H182.326L198.63 121.11H40.832Z" fill="#DBDBDB"/>
<path d="M58.5938 118.883L69.1153 114.832H170.347L180.872 118.883H58.5938Z" fill="#263238"/>
<path d="M174.444 38.3201H65.0195V107.603H174.444V38.3201Z" fill="white"/>
<path d="M174.443 38.3201H64.9258V40.9857H174.443V38.3201Z" fill="#455A64"/>
<path d="M67.0475 39.6514C67.0481 39.7825 67.0098 39.9109 66.9374 40.0203C66.865 40.1296 66.7617 40.215 66.6408 40.2656C66.5198 40.3163 66.3865 40.3298 66.2578 40.3046C66.1291 40.2795 66.0108 40.2166 65.9178 40.1241C65.8248 40.0316 65.7614 39.9136 65.7356 39.785C65.7098 39.6564 65.7227 39.5231 65.7728 39.4018C65.8228 39.2806 65.9077 39.177 66.0167 39.104C66.1257 39.0311 66.2539 38.9922 66.385 38.9922C66.5602 38.9922 66.7282 39.0615 66.8523 39.1851C66.9764 39.3086 67.0466 39.4763 67.0475 39.6514Z" fill="#C7C7C7"/>
<path d="M69.7584 39.6514C69.759 39.7827 69.7206 39.9112 69.6481 40.0206C69.5755 40.13 69.4721 40.2154 69.351 40.266C69.2298 40.3165 69.0963 40.3299 68.9676 40.3044C68.8388 40.279 68.7204 40.2158 68.6276 40.123C68.5348 40.0301 68.4716 39.9118 68.4462 39.783C68.4207 39.6542 68.4341 39.5208 68.4846 39.3996C68.5352 39.2785 68.6206 39.175 68.73 39.1025C68.8394 39.03 68.9679 38.9916 69.0992 38.9922C69.2738 38.993 69.4409 39.0628 69.5644 39.1862C69.6878 39.3096 69.7575 39.4768 69.7584 39.6514Z" fill="white"/>
<path d="M72.4459 39.6514C72.4465 39.7825 72.4082 39.9109 72.3358 40.0203C72.2634 40.1296 72.1602 40.215 72.0392 40.2656C71.9182 40.3163 71.7849 40.3298 71.6562 40.3046C71.5275 40.2795 71.4092 40.2166 71.3162 40.1241C71.2233 40.0316 71.1599 39.9136 71.1341 39.785C71.1082 39.6564 71.1212 39.5231 71.1712 39.4018C71.2212 39.2806 71.3061 39.177 71.4151 39.104C71.5241 39.0311 71.6523 38.9922 71.7835 38.9922C71.9586 38.9922 72.1266 39.0615 72.2507 39.1851C72.3749 39.3086 72.445 39.4763 72.4459 39.6514Z" fill="#0F4C81"/>
<path d="M201.01 99.2C200.739 101.075 200.834 102.984 201.292 104.822C201.509 105.674 201.798 106.506 202.156 107.309C202.601 108.336 203.071 109.341 202.956 110.467C202.847 110.538 203.222 110.528 203.234 110.416C206.242 108.704 210.098 108.39 212.412 105.59C213.51 104.266 214.063 102.586 214.332 100.902C214.617 99.072 214.697 97.0464 214.223 95.2416C213.826 93.7184 212.943 92.2464 211.5 91.4976C210.057 90.7488 208.082 90.7936 206.524 91.2768C203.154 92.3232 201.484 95.952 201.01 99.2Z" fill="#0F4C81"/>
<path d="M199.463 121.469C199.873 120.099 200.283 118.733 200.705 117.366C201.531 114.694 202.388 112.032 203.339 109.398C203.908 107.822 204.509 106.26 205.14 104.714C205.07 103.739 204.95 102.77 204.779 101.808C204.529 100.64 204.164 99.5136 203.819 98.3712C203.799 98.304 203.911 98.2656 203.94 98.3328C204.615 99.904 205.499 101.917 205.521 103.773C206.253 102.021 207.04 100.297 207.883 98.5984C207.98 97.1608 207.936 95.7171 207.751 94.288C207.749 94.2744 207.752 94.2604 207.76 94.249C207.767 94.2376 207.779 94.2298 207.793 94.2272C207.807 94.2247 207.821 94.2276 207.832 94.2354C207.843 94.2432 207.851 94.2552 207.854 94.2688C208.109 95.52 208.208 96.798 208.148 98.0736C208.788 96.7936 209.472 95.5328 210.199 94.2912C210.267 94.1824 210.42 94.2912 210.363 94.4064C209.234 96.5824 208.18 98.7989 207.201 101.056C208.585 99.8556 210.185 98.9293 211.915 98.3264C211.991 98.2976 212.046 98.4064 211.972 98.4384C210.083 99.2486 208.355 100.392 206.871 101.814C206.163 103.466 205.489 105.129 204.849 106.803C206.731 104.957 209.307 103.744 211.796 103.091C211.883 103.069 211.905 103.2 211.822 103.226C208.942 104.093 206.702 105.728 204.507 107.69C204.254 108.368 204.001 109.046 203.758 109.725C202.83 112.304 201.946 114.898 201.105 117.507C200.7 118.755 200.301 120.006 199.908 121.261C199.489 122.611 199.159 124.035 198.612 125.338C198.561 125.462 198.337 125.434 198.366 125.283C198.667 123.994 199.033 122.721 199.463 121.469Z" fill="#263238"/>
<path d="M204.452 96.5697C204.988 97.3901 205.356 98.3078 205.537 99.2705C205.537 99.2929 205.502 99.3089 205.492 99.2705C205.157 98.3635 204.765 97.4785 204.318 96.6209C204.273 96.5473 204.401 96.4929 204.452 96.5697Z" fill="#263238"/>
<path d="M209.818 102.835C210.656 102.373 211.571 102.065 212.518 101.927C212.541 101.927 212.557 101.962 212.518 101.971C212.086 102.151 211.629 102.275 211.19 102.445C210.752 102.615 210.32 102.819 209.872 102.976C209.854 102.979 209.836 102.976 209.821 102.968C209.805 102.959 209.793 102.945 209.786 102.928C209.78 102.912 209.78 102.893 209.785 102.876C209.791 102.859 209.802 102.845 209.818 102.835Z" fill="#263238"/>
<path d="M211.334 95.2962C211.605 95.0904 211.895 94.9115 212.201 94.7618C212.211 94.7554 212.223 94.7533 212.235 94.756C212.247 94.7587 212.257 94.766 212.263 94.7762C212.27 94.7863 212.272 94.7986 212.269 94.8103C212.266 94.8221 212.259 94.8322 212.249 94.8386C211.982 95.0494 211.696 95.2347 211.395 95.3922C211.34 95.4274 211.279 95.3346 211.334 95.2962Z" fill="#263238"/>
<path d="M190.868 109.418C193.035 110.058 195.211 110.656 197.377 111.293C197.566 111.347 201.217 104.33 199.905 100.717C198.68 97.3697 195.88 94.8641 192.545 93.7281C190.996 93.2033 189.096 92.7681 187.46 93.1233C186.008 93.4433 184.984 94.6337 184.51 96.0033C183.87 97.8593 184.081 100.074 184.43 101.971C184.71 103.75 185.444 105.426 186.561 106.839C187.71 108.205 189.179 108.919 190.868 109.418Z" fill="#0F4C81"/>
<path d="M187.726 102.749C189.097 103.417 190.518 103.977 191.976 104.422C192.948 104.684 193.896 105.026 194.811 105.446C193.896 103.408 192.891 101.411 191.826 99.4336C190.427 99.0272 188.946 98.3968 187.899 97.4048C187.887 97.3946 187.88 97.3802 187.879 97.3645C187.878 97.3489 187.883 97.3335 187.893 97.3216C187.903 97.3097 187.918 97.3024 187.933 97.3012C187.949 97.3 187.964 97.305 187.976 97.3152C189.131 98.128 190.405 98.6208 191.682 99.1712C191.394 98.6358 191.102 98.1024 190.808 97.5712C190.725 97.424 190.926 97.2768 191.026 97.4208C192.164 99.0751 193.193 100.803 194.104 102.592C194.337 101.025 194.412 99.4382 194.328 97.856C194.328 97.8475 194.331 97.8394 194.337 97.8334C194.343 97.8274 194.352 97.824 194.36 97.824C194.369 97.824 194.377 97.8274 194.383 97.8334C194.389 97.8394 194.392 97.8475 194.392 97.856C194.66 99.5827 194.642 101.342 194.338 103.062C195.096 104.579 195.79 106.131 196.411 107.706C196.658 106.746 196.981 105.83 197.195 104.877C197.524 103.516 197.632 102.112 197.515 100.717C197.515 100.675 197.57 100.672 197.576 100.717C197.961 103.305 197.647 105.949 196.667 108.374C197.032 109.318 197.378 110.269 197.691 111.222C199.326 116.083 200.295 121.142 200.571 126.262C200.567 126.284 200.556 126.303 200.539 126.317C200.523 126.331 200.502 126.338 200.48 126.338C200.458 126.338 200.437 126.331 200.421 126.317C200.404 126.303 200.393 126.284 200.389 126.262C199.821 121.214 198.739 116.237 197.16 111.408C196.52 109.52 195.806 107.686 195.013 105.888C193.733 105.51 192.453 104.995 191.205 104.56C189.957 104.125 188.722 103.645 187.685 102.838C187.679 102.836 187.674 102.832 187.669 102.827C187.665 102.822 187.661 102.817 187.659 102.811C187.657 102.805 187.656 102.798 187.656 102.792C187.657 102.785 187.658 102.779 187.661 102.773C187.664 102.767 187.667 102.762 187.672 102.757C187.677 102.753 187.683 102.749 187.689 102.747C187.695 102.745 187.701 102.744 187.708 102.744C187.714 102.745 187.721 102.746 187.726 102.749Z" fill="#263238"/>
<path d="M185.706 100.71C187.03 101.181 188.285 101.84 189.61 102.31C189.67 102.333 189.635 102.429 189.574 102.416C188.173 102.128 186.784 101.696 185.654 100.777C185.6 100.752 185.661 100.694 185.706 100.71Z" fill="#263238"/>
<path d="M196.527 97.8528C196.527 97.7824 196.614 97.7408 196.633 97.8144C196.998 99.0336 197.247 100.33 196.895 101.578C196.893 101.588 196.887 101.597 196.878 101.603C196.87 101.61 196.86 101.613 196.849 101.613C196.838 101.613 196.828 101.61 196.82 101.603C196.811 101.597 196.805 101.588 196.803 101.578C196.739 100.317 196.803 99.0912 196.527 97.8528Z" fill="#263238"/>
<path d="M191.042 95.0402C191.466 95.6461 191.67 96.3792 191.618 97.117C191.618 97.165 191.542 97.1906 191.529 97.1362C191.366 96.4386 191.097 95.8018 190.889 95.1202C190.885 95.1009 190.887 95.0807 190.895 95.0628C190.903 95.0449 190.917 95.0302 190.935 95.0211C190.952 95.012 190.972 95.0089 190.992 95.0124C191.011 95.0158 191.029 95.0256 191.042 95.0402Z" fill="#263238"/>
<path d="M216.642 112.515C216.002 114.528 214.498 117.315 212.108 117.338C210.559 117.354 209.001 117.168 207.446 117.149C205.785 117.12 204.118 117.126 202.457 117.226C202.322 117.226 202.655 112.243 206.655 109.814C207.772 109.136 209.142 108.918 210.412 108.643C211.868 108.3 213.362 108.145 214.857 108.182C215.772 108.218 216.537 108.413 216.863 109.354C217.19 110.294 216.943 111.555 216.642 112.515Z" fill="#0F4C81"/>
<path d="M214.918 109.991C213.958 110.24 212.966 110.528 211.993 110.839C212.246 110.561 212.514 110.298 212.796 110.051C213.215 109.703 213.676 109.411 214.124 109.12C214.163 109.095 214.124 109.024 214.092 109.043C213.147 109.436 212.33 110.086 211.734 110.919C210.521 111.309 209.318 111.744 208.159 112.218C207.359 112.546 206.592 112.95 205.868 113.424C206.102 112.92 206.38 112.437 206.697 111.981C207.228 111.296 207.945 110.912 208.639 110.423C208.653 110.414 208.664 110.401 208.668 110.386C208.672 110.37 208.67 110.353 208.662 110.339C208.654 110.325 208.64 110.315 208.625 110.311C208.609 110.307 208.593 110.309 208.579 110.317C207.852 110.632 207.2 111.095 206.663 111.677C206.126 112.259 205.717 112.947 205.462 113.696C204.628 114.293 203.867 114.984 203.193 115.757C200.55 118.759 198.467 122.755 198.457 126.835C198.457 126.931 198.614 126.96 198.633 126.858C199.311 122.86 201.053 119.118 203.676 116.026C203.865 115.805 204.06 115.594 204.259 115.386C204.982 115.286 205.711 115.232 206.441 115.223C207.292 115.223 208.137 115.347 209.001 115.418C210.396 115.53 211.939 115.546 213.199 114.845C213.254 114.813 213.199 114.717 213.155 114.739C210.348 115.76 207.395 114.464 204.591 115.075C205.796 113.928 207.208 113.02 208.751 112.4L209.011 112.295C210.812 112.512 212.713 112.983 214.467 112.397C214.518 112.378 214.499 112.298 214.444 112.314C212.748 112.736 211.123 112.205 209.452 112.119C211.273 111.411 213.129 110.839 214.956 110.141C215.081 110.08 215.084 109.949 214.918 109.991Z" fill="#263238"/>
<path d="M215.71 111.763C214.841 111.879 213.966 111.945 213.09 111.962C213.084 111.962 213.08 111.964 213.076 111.967C213.072 111.971 213.07 111.976 213.07 111.981C213.07 111.986 213.072 111.991 213.076 111.995C213.08 111.998 213.084 112 213.09 112C213.971 112.162 214.879 112.104 215.733 111.831C215.774 111.818 215.755 111.757 215.71 111.763Z" fill="#263238"/>
<path d="M209.792 110.035C209.308 110.254 208.869 110.56 208.496 110.938C208.451 110.979 208.512 111.059 208.56 111.024C208.781 110.864 209.008 110.704 209.235 110.563C209.456 110.443 209.669 110.311 209.875 110.167C209.888 110.154 209.895 110.137 209.897 110.119C209.899 110.101 209.895 110.084 209.885 110.068C209.876 110.053 209.861 110.042 209.844 110.036C209.827 110.03 209.809 110.03 209.792 110.035Z" fill="#263238"/>
<path d="M195.679 116.525C195.707 116.592 195.611 116.653 195.576 116.586C195.57 116.597 195.561 116.606 195.55 116.613C195.54 116.621 195.528 116.625 195.515 116.627C193.907 117.011 192.276 117.295 190.632 117.479C189.311 117.597 187.787 117.671 186.629 116.903C185.064 115.863 184.031 113.085 184.879 111.319C185.88 109.223 188.904 110.359 190.418 111.104C192.75 112.243 194.61 114.16 195.679 116.525Z" fill="#0F4C81"/>
<path d="M196.847 117.494C195.967 116.643 194.988 115.898 193.932 115.277C193.174 114.071 192.166 113.043 190.975 112.262C190.918 112.221 190.87 112.314 190.921 112.352C191.866 113.11 192.705 113.993 193.414 114.976C192.238 114.332 191.017 113.776 189.759 113.312C189.31 112.478 188.627 111.793 187.795 111.341C187.779 111.341 187.756 111.357 187.772 111.37C188.461 111.89 189.061 112.519 189.548 113.232C188.803 112.954 188.054 112.694 187.308 112.448C187.241 112.426 187.215 112.528 187.279 112.55C188.617 113.072 189.98 113.622 191.305 114.259C189.69 114.511 188.045 114.506 186.431 114.243C186.387 114.243 186.367 114.301 186.412 114.314C188.097 114.811 189.885 114.837 191.583 114.39C192.426 114.801 193.245 115.259 194.035 115.763C193.37 115.711 192.701 115.766 192.054 115.926C190.912 116.193 189.742 116.325 188.569 116.32C188.524 116.32 188.515 116.394 188.569 116.4C190.588 116.749 192.502 115.83 194.505 116.08C196.719 117.583 198.488 119.654 199.625 122.077C200.47 123.792 200.927 125.613 201.609 127.386C201.615 127.4 201.627 127.411 201.641 127.417C201.654 127.424 201.67 127.425 201.685 127.42C201.7 127.416 201.712 127.407 201.721 127.394C201.729 127.381 201.733 127.366 201.731 127.35C201.135 123.84 199.395 120 196.847 117.494Z" fill="#263238"/>
<path d="M190.755 112.701C190.624 112.458 190.449 112.241 190.24 112.061C190.07 111.876 189.867 111.724 189.642 111.613C189.622 111.613 189.61 111.632 189.622 111.648C189.789 111.834 190.019 111.968 190.198 112.154C190.378 112.339 190.518 112.547 190.71 112.723C190.715 112.726 190.719 112.728 190.725 112.728C190.73 112.729 190.735 112.728 190.739 112.725C190.744 112.723 190.748 112.72 190.75 112.715C190.753 112.711 190.755 112.706 190.755 112.701Z" fill="#263238"/>
<path d="M187.423 113.786C187.122 113.712 186.805 113.715 186.501 113.654C186.199 113.581 185.901 113.492 185.608 113.386C185.6 113.385 185.592 113.387 185.585 113.391C185.578 113.395 185.573 113.401 185.57 113.409C185.566 113.416 185.566 113.425 185.567 113.432C185.569 113.44 185.573 113.448 185.58 113.453C186.131 113.793 186.778 113.943 187.423 113.878C187.433 113.876 187.442 113.87 187.449 113.861C187.455 113.853 187.459 113.843 187.459 113.832C187.459 113.821 187.455 113.811 187.449 113.803C187.442 113.794 187.433 113.788 187.423 113.786Z" fill="#263238"/>
<path d="M205.175 123.031L204.91 126.042L204.011 136.215H196.046L194.919 126.042L194.59 123.031H205.175Z" fill="#455A64"/>
<path d="M205.175 123.031L204.91 126.042H194.919L194.59 123.031H205.175Z" fill="#263238"/>
<path d="M205.967 122.208H193.801V124.653H205.967V122.208Z" fill="#455A64"/>
<path d="M191.439 51.1938H48.5586V70.6882H191.439V51.1938Z" fill="white"/>
<path d="M191.598 70.8481H48.3984V51.0337H191.598V70.8481ZM48.7184 70.5281H191.278V51.3537H48.7184V70.5281Z" fill="#C7C7C7"/>
<path d="M191.44 51.1938H171.945V70.6882H191.44V51.1938Z" fill="#0F4C81"/>
<path d="M187.871 66.4065L186.069 67.7697L182.735 63.3601L181.516 61.7601C181.766 61.663 182.001 61.5304 182.213 61.3665C182.621 61.0541 182.94 60.6404 183.138 60.1665L184.434 61.8753L187.871 66.4065Z" fill="white"/>
<path d="M184.317 56.0353C183.748 55.2911 182.977 54.7254 182.096 54.4049C181.215 54.0844 180.261 54.0224 179.346 54.2264C178.431 54.4304 177.593 54.8917 176.932 55.556C176.271 56.2204 175.813 57.06 175.613 57.9758C175.413 58.8916 175.479 59.8455 175.804 60.725C176.128 61.6045 176.697 62.3728 177.444 62.9394C178.191 63.5061 179.084 63.8473 180.018 63.923C180.953 63.9987 181.889 63.8056 182.717 63.3665C183.391 63.0042 183.973 62.4918 184.417 61.8689C185.025 61.0134 185.344 59.9855 185.326 58.9358C185.308 57.886 184.955 56.8696 184.317 56.0353ZM182.205 61.3601C181.993 61.524 181.758 61.6566 181.508 61.7537C180.821 62.0248 180.057 62.0251 179.37 61.7546C178.683 61.4841 178.124 60.9629 177.806 60.2963C177.488 59.6298 177.436 58.8675 177.658 58.1634C177.881 57.4593 178.362 56.8659 179.005 56.5031C179.648 56.1402 180.405 56.0349 181.123 56.2085C181.841 56.382 182.466 56.8215 182.872 57.4381C183.278 58.0547 183.435 58.8025 183.312 59.5305C183.188 60.2584 182.793 60.9123 182.205 61.3601Z" fill="white"/>
<path d="M53.6831 55.0273H52.6367V66.8577H53.6831V55.0273Z" fill="#263238"/>
<path d="M122.497 78.2493L124.504 83.0942L122.501 83.923L120.485 79.0461L117.176 81.6125V67.9709L126.725 77.6189L122.497 78.2493Z" fill="#263238"/>
<path d="M117.289 66.1566C117.179 65.8677 117.125 65.5603 117.129 65.251C117.123 64.9427 117.178 64.6361 117.289 64.3486C117.403 64.6357 117.457 64.9425 117.449 65.251C117.456 65.5605 117.401 65.8681 117.289 66.1566Z" fill="#263238"/>
<path d="M115.733 66.8029C115.451 66.6771 115.195 66.4978 114.981 66.275C114.757 66.0619 114.577 65.8062 114.453 65.5229C115.018 65.7847 115.471 66.2383 115.733 66.8029Z" fill="#263238"/>
<path d="M115.085 68.3612C114.797 68.4715 114.491 68.5258 114.183 68.5212C113.874 68.5276 113.566 68.4733 113.277 68.3612C113.565 68.2476 113.873 68.1932 114.183 68.2012C114.491 68.1951 114.798 68.2495 115.085 68.3612Z" fill="#263238"/>
<path d="M115.733 69.9199C115.607 70.2015 115.429 70.4567 115.208 70.6719C114.993 70.8956 114.737 71.0749 114.453 71.1999C114.578 70.9161 114.757 70.6596 114.981 70.4447C115.196 70.2239 115.452 70.0458 115.733 69.9199Z" fill="#263238"/>
<path d="M119.496 68.3614C119.785 68.2493 120.092 68.195 120.402 68.2014C120.71 68.1937 121.017 68.2481 121.304 68.3614C121.017 68.4732 120.71 68.5275 120.402 68.5214C120.092 68.5262 119.785 68.4719 119.496 68.3614Z" fill="#263238"/>
<path d="M118.848 66.8029C119.112 66.24 119.565 65.7872 120.128 65.5229C119.863 66.0859 119.411 66.5387 118.848 66.8029Z" fill="#263238"/>
<path d="M73.3752 137.462C72.6232 137.715 51.0776 137.782 50.2552 137.274C49.9352 137.082 49.7464 133.942 49.6152 130.144C49.5896 129.325 49.564 128.477 49.548 127.616L47.8008 116.125L62.2008 116.032L63.5608 127.526L63.5064 130.058C63.5064 130.058 71.7688 133.718 72.6104 134.381C73.452 135.043 74.1272 137.206 73.3752 137.462Z" fill="#F7A9A0"/>
<path d="M73.3748 137.462C72.6228 137.715 51.0772 137.782 50.2548 137.274C49.874 137.037 49.666 132.454 49.5508 127.616L63.5668 127.526L63.5124 130.058C63.5124 130.058 71.7748 133.718 72.6164 134.381C73.458 135.043 74.1268 137.206 73.3748 137.462Z" fill="white"/>
<path d="M73.3733 137.462C72.6213 137.715 51.0757 137.782 50.2533 137.274C49.9333 137.082 49.7445 133.942 49.6133 130.144L63.5077 130.058C63.5077 130.058 71.7701 133.718 72.6117 134.381C73.4533 135.043 74.1253 137.206 73.3733 137.462Z" fill="#0F4C81"/>
<path d="M73.0628 136.602C69.45 136.525 54.874 136.56 51.3029 136.758C51.274 136.758 51.274 136.778 51.3029 136.781C54.8836 136.934 69.4596 136.781 73.0628 136.659C73.1396 136.656 73.1396 136.602 73.0628 136.602Z" fill="#263238"/>
<path d="M71.2263 133.61C70.8247 133.599 70.4253 133.673 70.0538 133.826C69.6824 133.979 69.3471 134.209 69.0695 134.499C68.5671 135.013 68.2808 135.7 68.2695 136.419C68.2695 136.438 68.3079 136.442 68.3111 136.419C68.4313 135.703 68.7804 135.046 69.306 134.545C69.8316 134.044 70.5054 133.727 71.2263 133.642C71.2285 133.64 71.2302 133.637 71.2313 133.634C71.2325 133.632 71.2331 133.629 71.2331 133.626C71.2331 133.623 71.2325 133.62 71.2313 133.617C71.2302 133.614 71.2285 133.612 71.2263 133.61Z" fill="#263238"/>
<path d="M64.9114 130.41C63.465 130.41 61.7914 130.912 60.8954 132.096C60.8634 132.144 60.9274 132.192 60.969 132.17C62.2316 131.503 63.5618 130.973 64.937 130.589C64.9566 130.581 64.9732 130.567 64.9839 130.549C64.9945 130.531 64.9987 130.51 64.9958 130.489C64.9928 130.468 64.9828 130.449 64.9675 130.435C64.9521 130.42 64.9324 130.411 64.9114 130.41Z" fill="#263238"/>
<path d="M66.0308 130.842C64.5844 130.826 62.9108 131.344 62.018 132.528C61.9828 132.573 62.0468 132.624 62.0916 132.602C63.3522 131.933 64.6815 131.403 66.0564 131.021C66.076 131.013 66.0926 130.999 66.1033 130.981C66.1139 130.963 66.1181 130.942 66.1152 130.921C66.1122 130.9 66.1022 130.881 66.0869 130.867C66.0715 130.852 66.0518 130.843 66.0308 130.842Z" fill="#263238"/>
<path d="M67.1477 131.274C65.7013 131.258 64.0277 131.773 63.1349 132.96C63.0997 133.005 63.1669 133.053 63.2085 133.031C64.47 132.364 65.7991 131.834 67.1733 131.45C67.1944 131.444 67.2126 131.431 67.2246 131.412C67.2366 131.394 67.2414 131.372 67.2383 131.35C67.2351 131.329 67.2242 131.309 67.2075 131.295C67.1908 131.281 67.1695 131.273 67.1477 131.274Z" fill="#263238"/>
<path d="M68.268 131.702C66.8216 131.702 65.148 132.205 64.252 133.392C64.2168 133.437 64.284 133.485 64.3256 133.462C65.5882 132.796 66.9185 132.266 68.2936 131.882C68.3133 131.874 68.3298 131.86 68.3405 131.842C68.3512 131.824 68.3554 131.803 68.3524 131.782C68.3495 131.761 68.3395 131.742 68.3241 131.727C68.3088 131.713 68.289 131.704 68.268 131.702Z" fill="#263238"/>
<path d="M52.2064 133.325C50.584 133.325 50.6064 135.856 52.2224 135.843C53.8384 135.831 53.832 133.312 52.2064 133.325Z" fill="#263238"/>
<path d="M66.4634 126.547C65.7274 125.942 64.809 126.547 64.361 127.187C63.6104 128.283 63.1613 129.556 63.0586 130.88C63.0585 130.886 63.0597 130.891 63.062 130.896C63.0643 130.902 63.0677 130.906 63.072 130.91C63.0763 130.913 63.0813 130.916 63.0867 130.918C63.0922 130.919 63.0978 130.919 63.1034 130.918C63.1093 130.946 63.1216 130.971 63.1392 130.993C63.1568 131.015 63.1793 131.032 63.2048 131.044C63.2303 131.055 63.2581 131.061 63.2861 131.059C63.3141 131.058 63.3414 131.05 63.3658 131.037C64.393 130.32 65.577 129.683 66.3546 128.672C66.809 128.077 67.1578 127.12 66.4634 126.547ZM64.7002 129.626C64.2042 129.99 63.6922 130.326 63.209 130.71C63.465 129.99 63.689 129.261 64.0154 128.566C64.1687 128.229 64.344 127.902 64.5402 127.587C64.8602 127.11 66.2682 125.898 66.4186 127.469C66.4986 128.336 65.2826 129.19 64.7002 129.626Z" fill="#263238"/>
<path d="M59.468 131.421C60.7288 131.61 62.028 131.248 63.2632 131.05C63.2902 131.043 63.3153 131.031 63.3364 131.013C63.3574 130.994 63.3738 130.972 63.3842 130.946C63.3946 130.92 63.3986 130.892 63.3959 130.865C63.3932 130.837 63.3839 130.811 63.3688 130.787C63.388 130.787 63.3976 130.746 63.3688 130.726C62.3776 129.842 61.1716 129.233 59.8712 128.96C59.1096 128.816 58.0312 129.024 57.9224 129.968C57.8168 130.861 58.7352 131.312 59.468 131.421ZM58.5944 130.602C57.612 129.363 59.4712 129.258 60.028 129.386C60.3874 129.476 60.7402 129.59 61.084 129.728C61.7906 130.021 62.4816 130.35 63.1544 130.714C62.54 130.771 61.9384 130.883 61.3272 130.966C60.6008 131.062 59.1352 131.283 58.5944 130.602Z" fill="#263238"/>
<path d="M26.6328 63.0017C26.6328 63.0017 43.3592 91.4593 43.8072 93.4561C44.4952 96.5249 49.4264 126.823 49.4264 126.823L63.4488 126.57C63.4488 126.57 61.5672 100.093 58.7256 91.2865C56.6808 84.9409 42.9016 63.6097 42.9016 63.6097L26.6328 63.0017Z" fill="#F7A9A0"/>
<path d="M41.4225 139.84C40.6321 139.895 19.2529 134.256 18.5873 133.549C18.5562 133.506 18.5384 133.455 18.5361 133.402C18.4497 132.704 19.5441 130.077 20.3121 126.717C20.3601 126.503 20.7633 125.482 21.3265 124.106C22.8753 120.32 25.6433 113.824 25.6433 113.824L39.4033 117.344L34.4497 127.722L33.7553 130.154C33.7553 130.154 40.8145 135.799 41.4577 136.656C42.1009 137.514 42.2129 139.799 41.4225 139.84Z" fill="#F7A9A0"/>
<path d="M41.4225 139.84C40.6321 139.895 19.2529 134.256 18.5873 133.549C18.5562 133.506 18.5384 133.455 18.5361 133.402C18.4497 132.704 19.5441 130.077 20.3121 126.717C20.3601 126.503 20.7633 125.482 21.3265 124.106L34.4625 127.735L33.7681 130.167C33.7681 130.167 40.8273 135.811 41.4705 136.669C42.1137 137.527 42.2129 139.799 41.4225 139.84Z" fill="white"/>
<path d="M41.4217 139.84C40.6282 139.895 19.2521 134.256 18.5865 133.549C18.3337 133.28 18.8873 130.387 20.3081 126.717L33.7673 130.167C33.7673 130.167 40.8265 135.811 41.4697 136.666C42.1129 137.52 42.2122 139.799 41.4217 139.84Z" fill="#0F4C81"/>
<path d="M41.3386 138.941C37.8634 137.949 23.761 134.269 20.2506 133.552C20.2218 133.552 20.2154 133.552 20.2506 133.574C23.6714 134.634 37.8058 138.195 41.3322 138.998C41.3994 139.014 41.4122 138.96 41.3386 138.941Z" fill="#263238"/>
<path d="M40.3202 135.581C39.9333 135.471 39.528 135.443 39.1298 135.498C38.7316 135.553 38.3492 135.69 38.0066 135.901C37.3814 136.27 36.9228 136.866 36.7266 137.565C36.7266 137.587 36.7586 137.597 36.7682 137.565C37.0654 136.903 37.5693 136.357 38.2041 136.006C38.8389 135.656 39.5702 135.521 40.2882 135.622C40.2937 135.627 40.3007 135.629 40.3076 135.628C40.3145 135.627 40.3207 135.623 40.325 135.618C40.3292 135.612 40.3311 135.605 40.3302 135.598C40.3293 135.591 40.3257 135.585 40.3202 135.581Z" fill="#263238"/>
<path d="M35.0318 130.88C33.6398 130.496 31.8894 130.56 30.7214 131.488C30.6766 131.523 30.7214 131.587 30.7758 131.578C32.1657 131.255 33.586 131.081 35.0127 131.059C35.0332 131.057 35.0523 131.047 35.0667 131.032C35.0812 131.017 35.0903 130.998 35.0925 130.977C35.0947 130.957 35.0899 130.936 35.0789 130.918C35.0679 130.901 35.0514 130.887 35.0318 130.88Z" fill="#263238"/>
<path d="M36.0038 131.581C34.6086 131.2 32.8582 131.261 31.6902 132.192C31.6454 132.227 31.6902 132.291 31.7446 132.279C33.1344 131.956 34.5547 131.782 35.9814 131.76C36.0022 131.758 36.0216 131.749 36.0365 131.734C36.0513 131.719 36.0609 131.7 36.0634 131.679C36.066 131.659 36.0616 131.638 36.0507 131.62C36.0399 131.602 36.0234 131.588 36.0038 131.581Z" fill="#263238"/>
<path d="M36.9733 132.282C35.5781 131.901 33.8277 131.962 32.6629 132.893C32.6181 132.928 32.6629 132.992 32.7141 132.979C34.1051 132.656 35.5264 132.483 36.9541 132.461C36.9747 132.458 36.9937 132.448 37.0082 132.434C37.0227 132.419 37.0317 132.399 37.034 132.379C37.0362 132.358 37.0314 132.337 37.0204 132.32C37.0094 132.302 36.9928 132.289 36.9733 132.282Z" fill="#263238"/>
<path d="M37.9452 132.986C36.55 132.602 34.7996 132.666 33.6316 133.594C33.5868 133.629 33.6316 133.693 33.686 133.683C35.0754 133.357 36.4959 133.183 37.9228 133.162C37.9444 133.161 37.9651 133.153 37.9812 133.139C37.9973 133.124 38.0077 133.105 38.0104 133.083C38.0131 133.062 38.008 133.04 37.996 133.022C37.9841 133.004 37.966 132.991 37.9452 132.986Z" fill="#263238"/>
<path d="M22.0014 130.464C20.4302 130.061 19.803 132.502 21.3614 132.906C22.9198 133.309 23.5758 130.88 22.0014 130.464Z" fill="#263238"/>
<path d="M37.5131 127.539C36.9563 126.768 35.9131 127.11 35.3211 127.606C34.3135 128.476 33.5539 129.597 33.1195 130.854C33.1175 130.86 33.1168 130.866 33.1174 130.872C33.118 130.877 33.1199 130.883 33.123 130.888C33.1261 130.893 33.1303 130.897 33.1352 130.9C33.1401 130.903 33.1457 130.905 33.1515 130.906C33.1515 131.014 33.2539 131.13 33.3755 131.085C34.5499 130.653 35.8587 130.339 36.8667 129.562C37.4555 129.107 38.0379 128.269 37.5131 127.539ZM35.0235 130.067C34.4507 130.291 33.8715 130.49 33.3051 130.736C33.7156 130.091 34.1588 129.467 34.6331 128.867C34.8663 128.58 35.1186 128.308 35.3883 128.054C35.8139 127.674 37.4907 126.861 37.2347 128.419C37.0939 129.28 35.7051 129.798 35.0235 130.067Z" fill="#263238"/>
<path d="M29.5115 130.471C30.6795 130.976 32.0267 130.954 33.2715 131.079C33.2993 131.079 33.327 131.073 33.3521 131.061C33.3772 131.049 33.3991 131.031 33.416 131.009C33.4329 130.987 33.4442 130.961 33.4491 130.934C33.4541 130.906 33.4524 130.878 33.4443 130.851C33.4498 130.849 33.4548 130.846 33.4589 130.842C33.463 130.838 33.4661 130.833 33.468 130.827C33.4698 130.822 33.4704 130.816 33.4696 130.81C33.4688 130.804 33.4667 130.799 33.4635 130.794C32.7283 129.684 31.7141 128.786 30.5227 128.192C29.8251 127.872 28.7307 127.789 28.3819 128.672C28.0331 129.555 28.8267 130.176 29.5115 130.471ZM28.8715 129.456C28.2315 128.01 30.0619 128.381 30.5675 128.647C30.8929 128.823 31.2052 129.023 31.5019 129.245C32.1112 129.706 32.6955 130.2 33.2523 130.723C32.6443 130.624 32.0331 130.579 31.4219 130.503C30.6955 130.413 29.2235 130.24 28.8715 129.456Z" fill="#263238"/>
<path d="M34.8425 126.935L21.5977 123.456C21.5977 123.456 34.0777 93.6769 33.9625 91.6417C33.8537 89.8369 24.0649 75.5009 23.0633 70.9025C22.0105 66.0737 24.4393 61.7313 26.7273 59.0625L42.9033 63.6225C42.9033 63.6225 41.6233 66.4193 39.2489 68.1889C39.2489 68.1889 49.4121 85.1489 49.6745 90.7457C49.9369 96.3425 34.8425 126.935 34.8425 126.935Z" fill="#F7A9A0"/>
<path d="M62.0248 111.04C57.9768 112.586 52.6744 114.24 47.4616 114.832C46.8504 111.13 46.1816 107.082 45.5768 103.501C44.0184 107.248 42.2168 111.283 40.54 114.928C35.6566 114.611 30.8127 113.845 26.0696 112.64C29.6408 103.898 34.0344 92.861 33.9608 91.6481C33.852 89.8465 24.0632 75.5074 23.0616 70.9122C22.0088 66.0802 24.4376 61.7378 26.7256 59.0562L42.9016 63.6162C42.9016 63.6162 56.6808 84.9506 58.7256 91.293C60.0728 95.4658 61.2056 103.626 62.0248 111.04Z" fill="#263238"/>
<path d="M26.7279 59.0496L44.1199 63.8496C44.1199 63.8496 56.6735 85.7056 58.4015 89.28C60.6223 93.856 62.1039 107.37 62.1039 107.37C53.8511 113.328 27.1055 112.029 25.8735 111.36C25.8735 111.36 33.4639 92.992 33.4991 91.7824C33.5663 89.5776 22.0175 75.9808 22.3631 67.92C22.6031 62.3168 26.7279 59.0496 26.7279 59.0496Z" fill="#37474F"/>
<path d="M42.9435 77.4178C42.8507 75.7794 42.7355 74.1378 42.5723 72.5026C42.5687 72.4853 42.5592 72.4698 42.5456 72.4586C42.5319 72.4475 42.5147 72.4414 42.4971 72.4414C42.4794 72.4414 42.4623 72.4475 42.4486 72.4586C42.4349 72.4698 42.4255 72.4853 42.4219 72.5026C42.4827 74.1442 42.5915 75.7858 42.7227 77.421C42.8539 79.0562 43.0235 80.6946 43.1419 82.3362C43.1419 82.3682 43.1963 82.3682 43.1931 82.3362C43.0875 80.701 43.0395 79.0594 42.9435 77.4178Z" fill="#263238"/>
<path d="M47.7134 86.8898C47.4958 86.4194 47.2558 85.9554 47.019 85.4946C46.7822 85.0338 46.5614 84.5506 46.3278 84.0802C45.8392 83.0925 45.355 82.1026 44.875 81.1106C44.8494 81.053 44.7502 81.1106 44.7758 81.1554C45.5416 82.892 46.2883 84.6381 47.0158 86.3938C47.6878 87.9938 48.379 89.6802 48.4398 91.4498C48.507 93.2962 47.8702 95.0722 47.2686 96.7874C46.6286 98.589 46.0142 100.394 45.4414 102.227C45.1214 103.258 44.7406 104.282 44.4526 105.328C44.3118 105.837 44.1326 106.336 43.9758 106.842C43.819 107.347 43.6558 107.904 43.4766 108.442C43.4766 108.474 43.5118 108.487 43.5246 108.442C43.691 107.978 43.8734 107.523 44.0526 107.063C44.2318 106.602 44.395 106.103 44.5902 105.635C44.9614 104.743 45.291 103.831 45.6302 102.928C46.315 101.114 46.971 99.2898 47.6174 97.4626C48.2382 95.7154 48.8974 93.9234 48.9774 92.0514C49.051 90.2402 48.4494 88.509 47.7134 86.8898Z" fill="#263238"/>
<path d="M39.8535 27.9073C37.2935 29.5073 35.9271 32.8001 35.9271 32.8001C35.9271 32.8001 33.1495 35.7953 33.2903 37.7857C33.3194 38.3501 33.4848 38.8991 33.7723 39.3856C34.0599 39.8721 34.4611 40.2817 34.9415 40.5793L34.9735 39.5009C34.9735 39.5009 35.3479 40.9793 37.4695 42.0193C39.5911 43.0593 42.7143 43.0369 44.4327 42.6017C45.4517 42.3505 46.3878 41.8388 47.1495 41.1169L46.2343 42.4897C46.9823 42.5747 47.7397 42.4731 48.4389 42.1939C49.138 41.9147 49.7571 41.4666 50.2407 40.8897C52.0551 38.8641 49.0887 34.6977 48.9351 33.9105C48.7815 33.1233 49.5559 27.8081 43.8567 27.4721C43.8567 27.4625 41.6007 26.8001 39.8535 27.9073Z" fill="#263238"/>
<path d="M34.1754 40.2657C33.6626 39.7469 33.2818 39.1126 33.065 38.4161C32.8622 37.7108 32.9028 36.9579 33.1802 36.2785C33.5692 35.4953 34.096 34.7886 34.7354 34.1921C35.3498 33.5521 36.0153 32.9313 36.6233 32.2721C36.6553 32.2337 36.601 32.1857 36.5626 32.2113C35.9445 32.6751 35.3537 33.174 34.793 33.7057C34.2346 34.1794 33.7331 34.7163 33.2985 35.3057C32.8977 35.8499 32.6602 36.497 32.6137 37.1713C32.6046 37.7259 32.7286 38.2745 32.9754 38.7713C33.2732 39.3423 33.6648 39.8594 34.1337 40.3009C34.1354 40.3052 34.1381 40.309 34.1415 40.312C34.145 40.315 34.1491 40.3172 34.1535 40.3183C34.1579 40.3195 34.1626 40.3195 34.1671 40.3185C34.1715 40.3175 34.1757 40.3154 34.1792 40.3124C34.1827 40.3094 34.1854 40.3057 34.1872 40.3015C34.1889 40.2972 34.1897 40.2926 34.1893 40.2881C34.1889 40.2835 34.1874 40.2791 34.185 40.2752C34.1826 40.2713 34.1793 40.2681 34.1754 40.2657Z" fill="#263238"/>
<path d="M51.2426 38.5985C51.0154 36.5281 49.5594 34.9185 48.8842 33.0049C48.5194 31.9681 48.305 30.8641 47.7386 29.9073C47.7226 29.8817 47.681 29.9073 47.6938 29.9361C48.1418 30.7809 48.3018 31.7153 48.561 32.6273C48.8481 33.5398 49.2243 34.422 49.6842 35.2609C50.481 36.8129 51.4378 38.6529 50.7754 40.4257C50.4714 41.2417 49.7642 42.0641 48.8554 42.1345C48.8202 42.1345 48.8266 42.1953 48.8554 42.1889C49.2277 42.129 49.584 41.994 49.9025 41.7921C50.221 41.5902 50.4952 41.3256 50.7082 41.0145C51.1691 40.2988 51.3587 39.4418 51.2426 38.5985Z" fill="#263238"/>
<path d="M51.1999 39.1361C51.4272 38.422 51.4272 37.655 51.1999 36.9409C50.9236 36.2517 50.4998 35.6313 49.9583 35.1233C49.3727 34.5089 48.7487 33.9137 48.4735 33.0913C48.4697 33.0866 48.4645 33.0832 48.4587 33.0816C48.4528 33.08 48.4466 33.0803 48.441 33.0824C48.4353 33.0845 48.4304 33.0884 48.4271 33.0934C48.4237 33.0985 48.4221 33.1044 48.4223 33.1105C48.8447 34.4641 50.0383 35.3185 50.7039 36.5249C51.4623 37.9041 51.0879 39.5777 50.0927 40.7361C49.4682 41.4438 48.6838 41.9924 47.8047 42.3361C47.8047 42.3361 47.8047 42.3649 47.8047 42.3585C49.2959 41.7825 50.7359 40.7297 51.1999 39.1361Z" fill="#263238"/>
<path d="M42.1438 44.5537C43.6126 47.7921 51.0558 52.2561 54.5438 52.7393C57.0526 53.0849 64.675 53.2097 67.2862 52.8129C70.3486 52.3489 68.0158 44.0833 66.2046 44.2945C61.2318 44.8705 57.011 45.5137 55.683 45.5137C54.0638 45.5137 45.2926 42.6913 44.2366 42.2945C41.651 41.3217 41.3086 42.7169 42.1438 44.5537Z" fill="#F7A9A0"/>
<path d="M65.2812 44.3841C68.3085 43.9905 72.0525 43.3121 75.2237 44.6625C75.5792 44.8024 75.8769 45.0584 76.0685 45.3889C77.4989 45.9681 77.6685 46.8193 77.6685 46.8193C78.8365 47.7793 78.8781 48.6561 78.8781 48.6561C78.8781 48.6561 80.5485 49.3537 80.2957 50.4353C80.0141 51.6481 77.7356 50.4353 76.0492 50.5313C72.2092 50.7649 66.8428 52.1697 65.7452 52.3457L65.2812 44.3841Z" fill="#F7A9A0"/>
<path d="M71.8615 47.9586C72.982 47.8766 74.1067 47.8712 75.2279 47.9426C76.4477 48.0982 77.6542 48.3442 78.8375 48.6786C78.8452 48.6812 78.8535 48.6806 78.8607 48.677C78.8679 48.6734 78.8734 48.6671 78.8759 48.6594C78.8785 48.6518 78.8779 48.6435 78.8743 48.6363C78.8707 48.6291 78.8644 48.6236 78.8567 48.621C76.6332 47.7472 74.2125 47.5004 71.8583 47.9074C71.8071 47.917 71.8071 47.9586 71.8615 47.9586Z" fill="#263238"/>
<path d="M71.3883 45.6674C72.4891 45.6674 74.4219 45.7218 77.6571 46.8546C77.6571 46.8546 77.6795 46.8546 77.6571 46.8354C75.7195 45.853 73.5466 45.4297 71.3819 45.613C71.3211 45.6194 71.3179 45.6642 71.3883 45.6674Z" fill="#263238"/>
<path d="M71.1558 44.432C73.0246 44.528 74.1894 44.8288 76.071 45.392C76.071 45.392 76.0902 45.376 76.071 45.3728C74.0038 44.5024 73.1526 44.4128 71.143 44.3616C71.079 44.3648 71.0822 44.4256 71.1558 44.432Z" fill="#263238"/>
<path d="M71.4549 51.1072C70.9685 51.3344 71.0837 51.5904 72.0149 51.808C72.9461 52.0256 76.8149 52.0896 76.6741 53.4368C76.5333 54.784 71.0837 54.6112 69.5605 54.1312C68.0373 53.6512 65.7461 52.3456 65.7461 52.3456C66.8149 52.16 69.3621 51.4848 71.4549 51.1072Z" fill="#F7A9A0"/>
<path d="M41.705 44.9057C43.3978 47.5713 49.1514 52.0097 49.1514 52.0097L50.0154 50.2273L52.8954 44.3329C52.8954 44.3329 47.5482 42.4801 44.0218 41.6225C43.6068 41.5173 43.1842 41.4446 42.7578 41.4049C40.4826 41.2193 40.2458 42.6145 41.705 44.9057Z" fill="#0F4C81"/>
<path d="M48.4222 43.2322C48.4735 43.4826 48.495 43.7383 48.4862 43.9938C48.4843 44.2484 48.4521 44.502 48.3902 44.749C48.3388 44.4996 48.3173 44.245 48.3262 43.9906C48.3297 43.735 48.3619 43.4806 48.4222 43.2322Z" fill="white"/>
<path d="M49.082 46.3199C49.5853 46.2238 50.1032 46.2347 50.602 46.3519C50.3516 46.4032 50.0959 46.4247 49.8404 46.4159C49.5848 46.4124 49.3305 46.3802 49.082 46.3199Z" fill="white"/>
<path d="M41.4961 41.92C41.7454 41.8685 42 41.8471 42.2545 41.856C42.5102 41.8579 42.7648 41.8902 43.0129 41.952C42.7624 42.0033 42.5068 42.0248 42.2513 42.016C41.9967 42.0126 41.7434 41.9804 41.4961 41.92Z" fill="white"/>
<path d="M45.6164 45.0815C45.4739 45.294 45.3075 45.4894 45.1204 45.6639C44.9382 45.8433 44.7352 46.0001 44.5156 46.1311C44.8034 45.7078 45.1774 45.3501 45.6132 45.0815H45.6164Z" fill="white"/>
<path d="M48.4538 48.7649C48.1661 49.1872 47.7933 49.5447 47.3594 49.8145C47.4998 49.6014 47.6653 49.4059 47.8522 49.2321C48.0348 49.0546 48.2366 48.8979 48.4538 48.7649Z" fill="white"/>
<path d="M41.7059 44.9057C43.3987 47.5713 49.1523 52.0097 49.1523 52.0097L50.0163 50.2273C47.8979 47.6225 44.6275 43.6737 42.7459 41.4049C40.4835 41.2193 40.2467 42.6145 41.7059 44.9057Z" fill="#263238"/>
<path d="M48.1264 50.7745C48.6064 49.6897 50.7248 45.3345 51.2464 44.4033C51.2816 44.3393 51.3296 44.3457 51.3008 44.4033C50.3721 46.5824 49.3274 48.7103 48.1712 50.7777C48.1584 50.8161 48.1168 50.8001 48.1264 50.7745Z" fill="#263238"/>
<path d="M46.4 49.0626C46.4544 49.6098 46.4768 50.173 46.4768 50.7362C46.4753 50.7149 46.4753 50.6935 46.4768 50.6722C46.5408 50.3714 46.6048 50.061 46.6944 49.7666C46.6944 49.7506 46.7264 49.7506 46.7264 49.7666C46.7038 50.0789 46.6524 50.3885 46.5728 50.6914C46.5365 50.8364 46.4981 50.9804 46.4576 51.1234C46.4576 51.373 46.4576 51.6226 46.4288 51.869C46.3968 52.3394 46.2368 54.3426 46.1824 54.685C46.1824 54.7554 46.0896 54.7522 46.0832 54.685C46.0576 54.3234 46.1376 52.2498 46.144 51.7794C46.1625 50.8718 46.2309 49.9659 46.3488 49.0658C46.3552 49.037 46.4 49.0434 46.4 49.0626Z" fill="#263238"/>
<path d="M45.257 65.3407C45.257 65.3407 37.7338 65.3727 24.4922 61.0687C24.4922 61.0687 33.6922 45.4303 39.001 41.8687C41.4202 40.2495 43.2378 41.0047 44.5338 42.7103C44.8538 43.1359 48.3546 50.5824 48.265 52.8768C48.185 54.9024 46.1114 56.6879 46.1114 56.6879L45.257 65.3407Z" fill="#0F4C81"/>
<path d="M42.1936 48.1184C42.2486 48.3674 42.2755 48.6218 42.2736 48.8768C42.2771 49.1319 42.2502 49.3865 42.1936 49.6352C42.1369 49.3865 42.1101 49.1319 42.1136 48.8768C42.1117 48.6218 42.1385 48.3674 42.1936 48.1184Z" fill="white"/>
<path d="M40.1272 56.8352C40.1822 57.0842 40.2091 57.3386 40.2072 57.5936C40.2107 57.8487 40.1838 58.1033 40.1272 58.352C40.0705 58.1033 40.0437 57.8487 40.0472 57.5936C40.0453 57.3386 40.0721 57.0842 40.1272 56.8352Z" fill="white"/>
<path d="M33.8069 51.4434C33.9135 51.9433 33.9135 52.4602 33.8069 52.9602C33.7502 52.7114 33.7234 52.4568 33.7269 52.2018C33.725 51.9468 33.7518 51.6924 33.8069 51.4434Z" fill="white"/>
<path d="M45.3928 55.6802C45.4995 56.1802 45.4995 56.697 45.3928 57.197C45.3362 56.9482 45.3093 56.6937 45.3128 56.4386C45.3109 56.1836 45.3377 55.9292 45.3928 55.6802Z" fill="white"/>
<path d="M37.4414 49.8626C37.6901 49.8059 37.9447 49.7791 38.1998 49.7826C38.455 49.7775 38.7097 49.8044 38.9582 49.8626C38.4582 49.9692 37.9414 49.9692 37.4414 49.8626Z" fill="white"/>
<path d="M32.043 56.608C32.544 56.5014 33.0619 56.5014 33.563 56.608C33.0619 56.7147 32.544 56.7147 32.043 56.608Z" fill="white"/>
<path d="M40.2266 61.9584C40.7265 61.8518 41.2434 61.8518 41.7434 61.9584C41.2434 62.0651 40.7265 62.0651 40.2266 61.9584Z" fill="white"/>
<path d="M30.6953 60.9281C31.1964 60.8215 31.7143 60.8215 32.2153 60.9281C31.7143 61.0347 31.1964 61.0347 30.6953 60.9281Z" fill="white"/>
<path d="M41.3672 42.528C41.8672 42.4213 42.384 42.4213 42.884 42.528C42.384 42.6346 41.8672 42.6346 41.3672 42.528Z" fill="white"/>
<path d="M38.7197 43.52C38.4409 43.9492 38.0745 44.3145 37.6445 44.592C37.7804 44.3763 37.9415 44.1775 38.1245 44C38.3039 43.8178 38.5036 43.6567 38.7197 43.52Z" fill="white"/>
<path d="M30.8181 51.9778C30.6805 52.1923 30.5195 52.3909 30.3381 52.5698C30.1599 52.752 29.9612 52.9131 29.7461 53.0498C29.881 52.8334 30.0422 52.6345 30.2261 52.4578C30.4036 52.2748 30.6023 52.1136 30.8181 51.9778Z" fill="white"/>
<path d="M43.4619 52.8833C43.3232 53.0979 43.1612 53.2964 42.9787 53.4753C42.8012 53.6583 42.6025 53.8195 42.3867 53.9553C42.6655 53.5262 43.0319 53.1608 43.4619 52.8833Z" fill="white"/>
<path d="M36.2048 58.9985C36.0673 59.2131 35.9063 59.4116 35.7248 59.5905C35.5466 59.7727 35.3479 59.9338 35.1328 60.0705C35.4116 59.6424 35.7767 59.2773 36.2048 58.9985Z" fill="white"/>
<path d="M45.5557 45.6128C45.2772 46.0431 44.9108 46.4095 44.4805 46.688C44.758 46.258 45.1233 45.8916 45.5525 45.6128H45.5557Z" fill="white"/>
<path d="M46.2002 51.4434C45.9848 51.3056 45.7852 51.1447 45.605 50.9634C45.4228 50.784 45.2617 50.5843 45.125 50.3682C45.5561 50.6456 45.9228 51.0122 46.2002 51.4434Z" fill="white"/>
<path d="M29.029 57.9201C28.6009 57.6414 28.2358 57.2762 27.957 56.8481C28.1734 56.9831 28.3723 57.1443 28.549 57.3281C28.732 57.5057 28.8932 57.7044 29.029 57.9201Z" fill="white"/>
<path d="M45.2634 60.4993C45.0496 60.3607 44.8512 60.1998 44.6714 60.0193C44.4892 59.8399 44.3281 59.6402 44.1914 59.4241C44.6206 59.7029 44.9859 60.0693 45.2634 60.4993Z" fill="white"/>
<path d="M35.5713 48.0256C35.1402 47.7482 34.7735 47.3816 34.4961 46.9504C34.9272 47.2279 35.2938 47.5945 35.5713 48.0256Z" fill="white"/>
<path d="M37.9736 64.2722C37.7575 64.1355 37.5578 63.9744 37.3784 63.7922C37.1954 63.6147 37.0343 63.4159 36.8984 63.2002C37.1145 63.3369 37.3142 63.498 37.4936 63.6802C37.6742 63.86 37.8351 64.0584 37.9736 64.2722Z" fill="white"/>
<path d="M37.9658 54.4929C37.5347 54.2155 37.1681 53.8488 36.8906 53.4177C37.3217 53.6952 37.6884 54.0618 37.9658 54.4929Z" fill="white"/>
<path d="M37.21 45.3184C35.962 48.8096 37.7444 61.6128 39.8532 64.3136C42.9924 68.3296 49.1812 72.0256 51.5492 73.1776C52.5796 73.68 57.2196 66.2688 56.2084 65.5744C54.042 64.0864 47.1204 60.5376 46.5348 59.8304C45.9492 59.1232 42.794 52.3488 41.53 48.5376C39.834 43.424 37.8372 43.552 37.21 45.3184Z" fill="#F7A9A0"/>
<path d="M51.5547 73.2C54.8379 75.072 61.3691 74.8 62.2587 74.528C63.0203 74.2976 63.4107 74.1728 63.4107 74.1728C64.7803 73.7888 65.1515 73.0272 65.1515 73.0272C65.1515 73.0272 66.8667 73.0496 67.0523 72.016C67.2635 70.8544 64.8123 71.056 63.3979 70.336C60.1563 68.6944 56.0091 65.4528 55.1227 64.896L51.5547 73.2Z" fill="#F7A9A0"/>
<path d="M58.7948 71.0017C59.7377 71.4935 60.7127 71.9212 61.7132 72.2817C62.832 72.6051 63.9733 72.8447 65.1276 72.9985C65.1353 72.9985 65.1426 73.0015 65.148 73.0069C65.1534 73.0123 65.1564 73.0197 65.1564 73.0273C65.1564 73.0349 65.1534 73.0423 65.148 73.0477C65.1426 73.0531 65.1353 73.0561 65.1276 73.0561C62.8636 72.994 60.66 72.3122 58.7564 71.0849C58.7084 71.0401 58.7468 70.9761 58.7948 71.0017Z" fill="#263238"/>
<path d="M57.5163 72.813C58.4763 73.213 60.1755 73.9042 63.4107 74.1378V74.157C61.356 74.2994 59.3021 73.8684 57.4779 72.9122C57.4235 72.8802 57.4523 72.7874 57.5163 72.813Z" fill="#263238"/>
<path d="M59.619 68.1089C59.2798 67.7281 59.4782 67.5489 60.3678 67.7121C61.2574 67.8753 64.643 69.2673 65.0302 68.0321C65.4174 66.7969 60.6142 64.9121 59.1102 64.7553C57.6062 64.5985 55.043 64.8737 55.043 64.8737C55.9038 65.4433 57.9422 66.9953 59.619 68.1089Z" fill="#F7A9A0"/>
<path d="M40.7 46.1985C38.5112 41.6001 36.5144 42.8097 36.3224 47.3601C36.1432 51.6193 36.7448 56.8353 36.7448 56.8353L44.6808 54.5601L40.7 46.1985Z" fill="#0F4C81"/>
<path d="M42.1936 48.1184C42.2486 48.3674 42.2755 48.6218 42.2736 48.8768C42.2771 49.1319 42.2502 49.3865 42.1936 49.6352C42.1369 49.3865 42.1101 49.1319 42.1136 48.8768C42.1117 48.6218 42.1385 48.3674 42.1936 48.1184Z" fill="white"/>
<path d="M37.4414 49.8626C37.6901 49.8059 37.9447 49.7791 38.1998 49.7826C38.455 49.7775 38.7097 49.8044 38.9582 49.8626C38.4582 49.9692 37.9414 49.9692 37.4414 49.8626Z" fill="white"/>
<path d="M38.7197 43.52C38.4409 43.9492 38.0745 44.3145 37.6445 44.592C37.7804 44.3763 37.9415 44.1775 38.1245 44C38.3039 43.8178 38.5036 43.6567 38.7197 43.52Z" fill="white"/>
<path d="M43.4619 52.8833C43.3232 53.0979 43.1612 53.2964 42.9787 53.4753C42.8012 53.6583 42.6025 53.8195 42.3867 53.9553C42.6655 53.5262 43.0319 53.1608 43.4619 52.8833Z" fill="white"/>
<path d="M37.9658 54.4929C37.5347 54.2155 37.1681 53.8488 36.8906 53.4177C37.3217 53.6952 37.6884 54.0618 37.9658 54.4929Z" fill="white"/>
<path d="M41.4603 47.6002C41.7547 48.205 42.0683 48.8002 42.3787 49.3954C42.3243 49.1138 42.2827 48.829 42.2507 48.541C42.2507 48.525 42.2667 48.525 42.2699 48.541C42.3147 48.765 42.3691 48.989 42.4107 49.213C42.4299 49.3218 42.4523 49.4306 42.4715 49.533C42.4715 49.5554 42.4715 49.5778 42.4875 49.6034C42.7275 50.0674 42.9675 50.5314 43.1979 51.005C43.4699 51.5682 43.7291 52.1378 43.9883 52.7042C44.2475 53.2706 44.4939 53.9682 44.7851 54.5442C44.5345 54.6444 44.2753 54.7215 44.0107 54.7746C43.9403 54.8002 43.9083 54.7298 43.9787 54.7202C44.0491 54.7106 44.6443 54.4738 44.6507 54.4674C44.3915 53.8946 44.0683 53.3506 43.7931 52.7874C43.5179 52.2242 43.2363 51.6642 42.9739 51.0978C42.4363 49.9458 41.9659 48.765 41.4347 47.6066C41.4283 47.597 41.4507 47.5874 41.4603 47.6002Z" fill="#263238"/>
<path d="M35.9915 50.3425C36.0651 50.5793 36.1483 50.8129 36.2059 51.0529C36.2315 51.1521 36.2571 51.2545 36.2795 51.3505C36.2497 50.5313 36.223 49.7099 36.1995 48.8865C36.3115 50.2305 36.4299 51.5745 36.5195 52.9217C36.6437 54.2107 36.7024 55.5051 36.6955 56.8001C36.9353 56.7426 37.1793 56.7041 37.4251 56.6849C37.1637 56.7996 36.8882 56.8792 36.6059 56.9217C36.4443 55.5758 36.3514 54.2226 36.3275 52.8673C36.3083 52.4993 36.2987 52.1281 36.2827 51.7601C36.2379 51.5297 36.1739 51.3057 36.1131 51.0785C36.0523 50.8513 36.0043 50.5953 35.9531 50.3521C35.9627 50.3361 35.9851 50.3297 35.9915 50.3425Z" fill="#263238"/>
<path d="M37.0689 55.6353C38.1857 55.2385 42.8289 53.7761 43.8401 53.5265C43.9105 53.5105 43.9393 53.5489 43.8689 53.5777C41.648 54.3995 39.3844 55.1013 37.0881 55.6801C37.0593 55.6801 37.0401 55.6481 37.0689 55.6353Z" fill="#263238"/>
<path d="M41.515 40.7583C42.5166 40.9023 43.675 41.6607 44.5646 42.9727C45.3486 44.1311 46.0398 45.7599 45.4574 46.0639C44.7854 46.4191 43.5374 44.9215 43.5374 44.9215C43.5374 44.9215 43.7742 47.2831 42.5294 47.1135C41.0734 46.9151 39.8254 44.8319 39.6494 43.4431C39.4414 41.9647 39.7646 40.5087 41.515 40.7583Z" fill="white"/>
<path d="M40.0275 41.9423C40.1139 42.2911 41.7972 44.5247 43.3844 44.4287C43.9028 44.3967 43.8547 41.5711 43.8547 41.5711L43.8995 41.3599L44.5171 38.4287L41.0547 36.2655L40.5555 35.9807C40.5555 35.9807 40.4403 36.7935 40.3027 37.8079L40.2835 37.9519C40.2835 38.0095 40.2835 38.0639 40.2611 38.1183C40.2387 38.2687 40.2163 38.4223 40.1971 38.5791C40.1779 38.7359 40.1683 38.8095 40.1587 38.9343C40.1491 39.0591 40.1331 39.1775 40.1171 39.3023C40.0263 40.1792 39.9964 41.0613 40.0275 41.9423Z" fill="#F7A9A0"/>
<path d="M40.3008 37.8079C40.6063 38.6257 41.0864 39.3671 41.7075 39.9805C42.3287 40.5939 43.076 41.0646 43.8976 41.3599L44.5152 38.4287L41.0528 36.2655L40.5536 35.9807C40.5536 35.9807 40.4384 36.7999 40.3008 37.8079Z" fill="#263238"/>
<path d="M49.0718 34.3521C49.123 39.6129 45.9774 40.2369 44.8414 40.2465C43.8142 40.2465 40.307 40.1537 39.7214 34.9281C39.1358 29.7025 41.5582 28.0129 43.9102 27.8689C46.2622 27.7249 49.0206 29.0913 49.0718 34.3521Z" fill="#F7A9A0"/>
<path d="M48.2104 33.5618C48.0888 33.5394 47.98 33.4978 47.8616 33.4658C47.7335 33.4484 47.6145 33.39 47.5224 33.2994C47.4977 33.2667 47.4844 33.2268 47.4844 33.1858C47.4844 33.1448 47.4977 33.1049 47.5224 33.0722C47.5854 33.0184 47.6616 32.9824 47.7431 32.9678C47.8246 32.9532 47.9086 32.9605 47.9864 32.989C48.1526 33.0243 48.2997 33.1201 48.3992 33.2578C48.4193 33.2893 48.4301 33.3259 48.4304 33.3633C48.4306 33.4007 48.4202 33.4375 48.4005 33.4692C48.3808 33.501 48.3524 33.5266 48.3188 33.543C48.2852 33.5593 48.2476 33.5659 48.2104 33.5618Z" fill="#263238"/>
<path d="M44.8024 33.453C44.9227 33.4424 45.0423 33.4253 45.1608 33.4018C45.2906 33.3999 45.4163 33.3561 45.5192 33.277C45.5432 33.2433 45.5561 33.2031 45.5561 33.1618C45.5561 33.1205 45.5432 33.0802 45.5192 33.0466C45.4626 32.9862 45.391 32.942 45.3117 32.9184C45.2325 32.8948 45.1484 32.8926 45.068 32.9122C44.8995 32.9272 44.7424 33.0035 44.6264 33.1266C44.6001 33.157 44.5837 33.1947 44.5793 33.2347C44.5749 33.2746 44.5828 33.315 44.6019 33.3504C44.621 33.3858 44.6504 33.4146 44.6862 33.4329C44.722 33.4512 44.7625 33.4582 44.8024 33.453Z" fill="#263238"/>
<path d="M45.4114 34.8193C45.4114 34.8193 45.3858 34.8193 45.3858 34.8513C45.3858 35.2097 45.3186 35.6193 44.9922 35.7249V35.7473C45.3922 35.7057 45.469 35.1617 45.4114 34.8193Z" fill="#263238"/>
<path d="M45.1204 34.4352C44.5476 34.3712 44.458 35.5232 44.9892 35.584C45.5204 35.6448 45.5876 34.4896 45.1204 34.4352Z" fill="#263238"/>
<path d="M44.8768 34.4802C44.7712 34.5378 44.6624 34.6434 44.5408 34.6466C44.4192 34.6498 44.3008 34.5218 44.2208 34.397H44.1984C44.1792 34.6178 44.2464 34.8514 44.48 34.9026C44.7136 34.9538 44.864 34.765 44.9376 34.5474C44.9504 34.5186 44.9184 34.4546 44.8768 34.4802Z" fill="#263238"/>
<path d="M47.4392 34.8289C47.4392 34.8289 47.4648 34.8481 47.4648 34.8609C47.4232 35.2193 47.436 35.6321 47.7496 35.7793C47.7496 35.7793 47.7496 35.8017 47.7496 35.7985C47.3624 35.7089 47.3432 35.1585 47.4392 34.8289Z" fill="#263238"/>
<path d="M47.7856 34.4832C48.3648 34.4832 48.3136 35.6416 47.7856 35.6384C47.2576 35.6352 47.3024 34.4768 47.7856 34.4832Z" fill="#263238"/>
<path d="M48.0274 34.5601C48.1138 34.6241 48.2002 34.7393 48.309 34.7521C48.4178 34.7649 48.533 34.6465 48.629 34.5281H48.6482C48.6482 34.7521 48.5586 34.9761 48.3282 35.0113C48.0978 35.0465 48.0082 34.8449 47.957 34.6209C47.957 34.6049 48.0018 34.5601 48.0274 34.5601Z" fill="#263238"/>
<path d="M45.1567 37.5746C45.2303 37.6674 45.3007 37.7922 45.4287 37.8178C45.5613 37.8314 45.6954 37.8173 45.8223 37.7762C45.8223 37.7762 45.8447 37.7762 45.8223 37.7954C45.7634 37.8594 45.6881 37.906 45.6046 37.9302C45.5212 37.9545 45.4327 37.9554 45.3487 37.933C45.2785 37.9059 45.218 37.8586 45.1747 37.7971C45.1315 37.7356 45.1073 37.6626 45.1055 37.5874C45.1215 37.565 45.1439 37.5618 45.1567 37.5746Z" fill="#263238"/>
<path d="M46.7217 36.3777C46.7217 36.3777 46.7601 36.9153 46.7441 37.1681C46.7441 37.1905 46.6801 37.2001 46.5937 37.2001C46.3752 37.2256 46.1539 37.1905 45.954 37.0985C45.7542 37.0064 45.5836 36.8611 45.4609 36.6785C45.4609 36.6529 45.4801 36.6305 45.4993 36.6465C45.8071 36.8868 46.1842 37.0215 46.5745 37.0305C46.5969 36.9633 46.4753 36.1121 46.5169 36.1089C46.7112 36.1391 46.9006 36.1951 47.0801 36.2753C47.0289 35.1521 46.7985 34.0353 46.7601 32.9249C46.7624 32.9177 46.7668 32.9114 46.7729 32.907C46.7789 32.9025 46.7862 32.9001 46.7937 32.9001C46.8012 32.9001 46.8085 32.9025 46.8146 32.907C46.8206 32.9114 46.8251 32.9177 46.8273 32.9249C47.1106 34.1044 47.2746 35.3093 47.3169 36.5217C47.3393 36.6497 46.8305 36.4257 46.7217 36.3777Z" fill="#263238"/>
<path d="M46.5775 37.1009C46.419 37.2974 46.2115 37.4487 45.9759 37.5393C45.846 37.582 45.7058 37.582 45.5759 37.5393C45.2879 37.4529 45.2879 37.1873 45.3487 36.9601C45.3812 36.8405 45.4285 36.7255 45.4895 36.6177C45.7909 36.8913 46.1724 37.0607 46.5775 37.1009Z" fill="#263238"/>
<path d="M45.9759 37.5394C45.846 37.5821 45.7058 37.5821 45.5759 37.5394C45.2879 37.453 45.2879 37.1874 45.3487 36.9602C45.5035 36.9709 45.6501 37.0341 45.7642 37.1394C45.8782 37.2448 45.9529 37.3859 45.9759 37.5394Z" fill="#FF99BA"/>
<path d="M40.1708 35.2C41.4508 35.248 42.1324 31.3152 42.2092 30.832C42.1772 31.152 42.0108 32.752 42.1292 32.8416C42.2684 32.8471 42.4077 32.8309 42.542 32.7936C42.5555 32.5984 42.5855 32.4046 42.6316 32.2144C42.6664 32.3968 42.6803 32.5825 42.6732 32.768L42.9164 32.72C42.933 32.3027 43.0051 31.8895 43.1308 31.4912C43.182 31.3376 43.1692 32.0352 43.2716 32.6528C44.3961 32.416 45.5433 32.3044 46.6924 32.32C47.0124 32.32 47.294 32.3584 47.5372 32.3872C47.5756 31.9072 47.5596 31.3888 47.5852 31.5008C47.6605 31.7995 47.7055 32.1051 47.7196 32.4128C47.8508 32.4128 47.9756 32.448 48.0844 32.4672C48.1676 31.7888 47.9244 30.6784 48.0204 30.8672C48.3056 31.4022 48.487 31.9864 48.5548 32.5888C49.0124 32.7136 49.134 32.816 49.1532 32.6944C49.117 31.3362 48.5947 30.0361 47.6812 29.0304C46.1836 27.392 42.9996 26.7712 41.0124 28.9728C41.0124 28.9728 39.4476 29.8368 39.0924 31.3888C38.7372 32.9408 39.4252 35.1712 40.1708 35.2Z" fill="#263238"/>
<path d="M40.8972 35.2224C40.8972 35.2224 39.8796 33.4976 39.1052 33.8496C38.3308 34.2016 39.0092 36.64 39.8572 37.0304C39.9621 37.0882 40.0776 37.1241 40.1968 37.136C40.3159 37.1479 40.4362 37.1355 40.5505 37.0996C40.6647 37.0638 40.7705 37.0051 40.8614 36.9272C40.9524 36.8493 41.0266 36.7538 41.0796 36.6464L40.8972 35.2224Z" fill="#F7A9A0"/>
<path d="M39.3171 34.5601C39.3171 34.5601 39.2979 34.5601 39.3171 34.5825C39.9091 34.8769 40.1875 35.4689 40.3667 36.0737C40.3359 36.01 40.2917 35.9537 40.237 35.9088C40.1824 35.8639 40.1186 35.8313 40.0502 35.8134C39.9818 35.7954 39.9103 35.7925 39.8406 35.8049C39.771 35.8172 39.7048 35.8445 39.6467 35.8849C39.6307 35.8849 39.6467 35.9201 39.6467 35.9201C39.7565 35.8938 39.8717 35.9022 39.9766 35.944C40.0814 35.9859 40.1707 36.0591 40.2323 36.1537C40.3327 36.3143 40.4163 36.4848 40.4819 36.6625C40.5075 36.7201 40.6099 36.6977 40.5939 36.6337V36.6177C40.6707 35.8401 40.1491 34.6881 39.3171 34.5601Z" fill="#263238"/>
</svg>
